<svg width="296" height="80" viewBox="0 0 296 80" fill="none" xmlns="http://www.w3.org/2000/svg">
<rect width="296" height="80" rx="8" fill="white"/>
<rect x="112" y="16" width="160" height="24" fill="#F6F8FA"/>
<rect x="112" y="52" width="67" height="12" fill="#EBEDEE"/>
<path d="M80 40C80 53.2548 69.2548 64 56 64C42.7452 64 32 53.2548 32 40C32 26.7452 42.7452 16 56 16C69.2548 16 80 26.7452 80 40Z" fill="#70AAFC"/>
<mask id="mask0" mask-type="alpha" maskUnits="userSpaceOnUse" x="32" y="16" width="48" height="48">
<path d="M80 40C80 53.2548 69.2548 64 56 64C42.7452 64 32 53.2548 32 40C32 26.7452 42.7452 16 56 16C69.2548 16 80 26.7452 80 40Z" fill="#F0F5F6"/>
</mask>
<g mask="url(#mask0)">
<g opacity="0.8">
<path d="M65.2816 31.473C65.2816 36.2313 61.3941 40.0886 56.5988 40.0886C51.8034 40.0886 47.916 36.2313 47.916 31.473C47.916 26.7148 51.8034 22.8574 56.5988 22.8574C61.3941 22.8574 65.2816 26.7148 65.2816 31.473Z" fill="#2C65F8"/>
<path d="M56.5938 42.2402C43.3105 42.2402 32.3494 52.1062 30.7471 64.8562H82.4406C80.8383 52.1062 69.8772 42.2402 56.5938 42.2402Z" fill="#2C65F8"/>
</g>
<path d="M62.0133 55.5757C62.2162 56.8122 63.3313 57.7578 64.6766 57.7578C66.0082 57.7578 67.1144 56.8312 67.3334 55.6131C67.3614 55.4988 67.373 55.4074 67.3695 55.3292C67.3695 55.2395 67.3026 55.1699 67.2098 55.1699H67.0593H62.3191H62.1457C62.053 55.1699 61.9861 55.2394 61.986 55.329C61.9858 55.329 61.9856 55.329 61.9854 55.329C61.9855 55.331 61.9856 55.333 61.9857 55.335C61.9833 55.4031 61.9922 55.4812 62.0133 55.5757L62.0133 55.5757Z" fill="#70AAFC"/>
<path d="M65.9958 59.342C65.8944 58.7238 65.3368 58.251 64.6642 58.251C63.9983 58.251 63.4453 58.7143 63.3358 59.3233C63.3217 59.3805 63.3159 59.4262 63.3177 59.4653C63.3177 59.5101 63.3512 59.5449 63.3976 59.5449H63.4728H65.8429H65.9296C65.976 59.5449 66.0094 59.5102 66.0095 59.4654C66.0096 59.4654 66.0097 59.4654 66.0098 59.4654C66.0097 59.4644 66.0096 59.4634 66.0096 59.4624C66.0108 59.4283 66.0063 59.3893 65.9958 59.342Z" fill="#70AAFC"/>
</g>
</svg>
