<svg width="80" height="80" viewBox="0 0 80 80" fill="none" xmlns="http://www.w3.org/2000/svg">
<g clip-path="url(#clip0)">
<path d="M60.6397 12.7474C60.7851 12.4457 61.2149 12.4457 61.3603 12.7474L63.5415 17.2719C63.5808 17.3535 63.6465 17.4192 63.7281 17.4585L68.2526 19.6397C68.5543 19.7851 68.5543 20.2149 68.2526 20.3603L63.7281 22.5415C63.6465 22.5808 63.5808 22.6465 63.5415 22.7281L61.3603 27.2526C61.2149 27.5543 60.7851 27.5543 60.6397 27.2526L58.4585 22.7281C58.4192 22.6465 58.3535 22.5808 58.2719 22.5415L53.7474 20.3603C53.4457 20.2149 53.4457 19.7851 53.7474 19.6397L58.2719 17.4585C58.3535 17.4192 58.4192 17.3535 58.4585 17.2719L60.6397 12.7474Z" fill="#F4B053"/>
<path d="M51.1397 4.74743C51.2851 4.4457 51.7149 4.4457 51.8603 4.74743L52.5777 6.23564C52.617 6.31717 52.6828 6.38296 52.7644 6.42226L54.2526 7.13968C54.5543 7.28514 54.5543 7.71486 54.2526 7.86032L52.7644 8.57774C52.6828 8.61704 52.617 8.68283 52.5777 8.76436L51.8603 10.2526C51.7149 10.5543 51.2851 10.5543 51.1397 10.2526L50.4223 8.76436C50.383 8.68283 50.3172 8.61704 50.2356 8.57774L48.7474 7.86032C48.4457 7.71486 48.4457 7.28514 48.7474 7.13968L50.2356 6.42226C50.3172 6.38296 50.383 6.31717 50.4223 6.23564L51.1397 4.74743Z" fill="#F4B053"/>
<path d="M27.7329 28.2349L46.6162 24.3223C47.0748 24.2273 47.2516 23.6661 46.9303 23.3254L41.6489 17.7235C41.4939 17.5591 41.4447 17.3215 41.5216 17.109L44.1423 9.86992C44.3018 9.42952 43.9166 8.98485 43.4579 9.07988L38.9377 10.0165L23.9884 13.114L27.0252 27.7701C27.0923 28.0939 27.4091 28.302 27.7329 28.2349Z" fill="#7EB0FE"/>
<path d="M30.8807 8.01737L16.8107 10.9327L19.969 26.1751L34.0389 23.2598C34.6864 23.1256 35.1026 22.4919 34.9684 21.8444L32.2961 8.94692C32.1619 8.29937 31.5282 7.8832 30.8807 8.01737Z" fill="#4287F2"/>
<path d="M34.039 23.2598L26.9644 27.477L26.4178 24.8389L34.039 23.2598Z" fill="#3976D5"/>
<path d="M16.3253 8.58758L23.8565 44.9349" stroke="#7EB0FE" stroke-width="1.7961" stroke-linecap="round" stroke-linejoin="round"/>
<path d="M74.8276 73.5749C75.2258 73.5749 75.5494 73.2519 75.5412 72.8538C75.3555 63.8216 71.6867 55.1987 65.2854 48.7974C58.714 42.226 49.8013 38.5342 40.5079 38.5342C31.2146 38.5342 22.3018 42.226 15.7304 48.7974C9.32916 55.1987 5.66034 63.8216 5.47464 72.8538C5.46645 73.2519 5.79002 73.5749 6.18819 73.5749L40.5079 73.5749H74.8276Z" fill="#CFE1FB"/>
<path opacity="0.3" d="M65.2855 48.7974C71.6868 55.1987 75.3556 63.8216 75.5413 72.8538C75.5495 73.2519 75.2259 73.5749 74.8277 73.5749H40.508L40.508 38.5342C49.8014 38.5342 58.7141 42.226 65.2855 48.7974Z" fill="white"/>
<path d="M8.82407 70.4562C9.83984 71.0027 11.8261 69.2841 13.2605 66.6177C14.6949 63.9513 15.0343 61.3468 14.0185 60.8003C13.0028 60.2539 11.0165 61.9725 9.58209 64.6389C8.14768 67.3053 7.8083 69.9098 8.82407 70.4562Z" fill="#B7D2FC"/>
<path opacity="0.3" d="M8.44957 70.3852C9.64342 71.0275 11.7741 69.3866 13.2085 66.7202C14.6429 64.0538 14.8379 61.3716 13.644 60.7294C12.4502 60.0871 10.3195 61.728 8.88513 64.3944C7.45072 67.0608 7.25571 69.743 8.44957 70.3852Z" fill="#7EB0FE"/>
<path opacity="0.3" d="M35.6074 45.5641C35.3155 47.2661 37.0157 48.9779 39.4048 49.3877C41.794 49.7974 43.9674 48.7498 44.2592 47.0479C44.5511 45.3459 42.8509 43.6341 40.4618 43.2244C38.0727 42.8146 35.8993 43.8622 35.6074 45.5641Z" fill="#7EB0FE"/>
<path opacity="0.3" d="M69.7315 63.8216C68.0379 64.159 67.049 66.3597 67.5226 68.737C67.9962 71.1143 69.753 72.768 71.4465 72.4306C73.14 72.0933 74.129 69.8926 73.6554 67.5153C73.1818 65.138 71.425 63.4843 69.7315 63.8216Z" fill="#7EB0FE"/>
<path opacity="0.3" d="M30.1665 69.1987C32.0039 70.6978 34.7356 70.3905 36.268 68.5123C37.8004 66.6341 37.5532 63.8962 35.7158 62.3972C33.8785 60.8981 31.1467 61.2054 29.6143 63.0836C28.0819 64.9618 28.3291 67.6996 30.1665 69.1987Z" fill="#7EB0FE"/>
<path d="M64.8358 56.4315C63.7428 57.9329 59.6619 56.8241 55.7208 53.955C51.7797 51.0859 49.4708 47.543 50.5638 46.0416C51.6568 44.5402 55.7377 45.649 59.6788 48.5181C63.62 51.3872 65.9288 54.9301 64.8358 56.4315Z" fill="#B7D2FC"/>
<path opacity="0.3" d="M65.3294 56.0675C64.0448 57.8321 59.8086 56.9367 55.8674 54.0676C51.9263 51.1985 49.7728 47.4422 51.0574 45.6776C52.342 43.913 56.5783 44.8084 60.5194 47.6774C64.4605 50.5465 66.614 54.3029 65.3294 56.0675Z" fill="#7EB0FE"/>
</g>
<defs>
<clipPath id="clip0">
<rect width="80" height="80" fill="white"/>
</clipPath>
</defs>
</svg>
